/* XPM */
static char *c7bb9b957b7343dac59081865ee7f07foGiPCe9pF8pqijMI[] = {
/* columns rows colors chars-per-pixel */
"32 32 2 1 ",
"  c None",
". c white",
/* pixels */
"                                ",
"                                ",
"                                ",
"             .....              ",
"           ..     ..            ",
"          .         .           ",
"          ..... .....           ",
"         . .  ...  . .          ",
"         . .  ...  . .          ",
"         . .... .... .          ",
"         .           .          ",
"          .   ...   .           ",
"          .         .           ",
"           ..     ..            ",
"             .....              ",
"               .                ",
"              . .               ",
"             . . .              ",
"             . . .              ",
"             . . .              ",
"             . . .              ",
"             .   .              ",
"             .   .              ",
"              . .               ",
"              ...               ",
"              . .               ",
"              . .               ",
"              . .               ",
"             .. ..              ",
"                                ",
"                                ",
"                                "
};
