/* XPM */
static char *_0704f8bd5ef49e9fa2a061ac1b57435p5uvKipNrxc7PUMk[] = {
/* columns rows colors chars-per-pixel */
"32 32 2 1 ",
"  c None",
". c white",
/* pixels */
"                                ",
"                                ",
"                                ",
"             .....              ",
"           .........            ",
"          .   .......           ",
"          ...........           ",
"         . .  . ......          ",
"         . .  ........          ",
"         . ....   ....          ",
"         .          ..          ",
"          .         .           ",
"          ....      .           ",
"           ..     ..            ",
"             .....              ",
"               .                ",
"              . .               ",
"             .   .              ",
"             .   .              ",
"             .   .              ",
"             .   .              ",
"             .   .              ",
"             .   .              ",
"              . .               ",
"              ...               ",
"              . .               ",
"              . .               ",
"              . .               ",
"             ....               ",
"                                ",
"                                ",
"                                "
};
