/* XPM */
static char *cc7323f207244390a826d4663ff3a60acktZbdIkw1zelPlv[] = {
/* columns rows colors chars-per-pixel */
"32 32 2 1 ",
"  c None",
". c white",
/* pixels */
"                                ",
"                                ",
"                                ",
"             .....              ",
"           .........            ",
"          .......   .           ",
"          ...........           ",
"         ...... .  . .          ",
"         ........  . .          ",
"         ....   .... .          ",
"         ..          .          ",
"          .         .           ",
"          .      ....           ",
"           ..     ..            ",
"             .....              ",
"               .                ",
"              . .               ",
"             .   .              ",
"             .   .              ",
"             .   .              ",
"             .   .              ",
"             .   .              ",
"             .   .              ",
"              . .               ",
"              ...               ",
"              . .               ",
"              . .               ",
"              . .               ",
"              ....              ",
"                                ",
"                                ",
"                                "
};
